<svg width="1440" height="729" viewBox="0 0 1440 729" fill="none" xmlns="http://www.w3.org/2000/svg">
<g clip-path="url(#clip0_50_2056)">
<path opacity="0.2" d="M-71.1929 0L1425.61 728.783" stroke="white" stroke-opacity="0.4"/>
<path opacity="0.2" d="M-159.241 42.8691L1337.57 771.652" stroke="white" stroke-opacity="0.4"/>
<path opacity="0.2" d="M-247.289 85.7383L1249.52 814.521" stroke="white" stroke-opacity="0.4"/>
<path opacity="0.2" d="M-335.336 128.609L1161.47 857.392" stroke="white" stroke-opacity="0.4"/>
<path opacity="0.2" d="M-423.383 171.479L1073.42 900.261" stroke="white" stroke-opacity="0.4"/>
<path opacity="0.2" d="M-511.43 214.348L985.377 943.13" stroke="white" stroke-opacity="0.4"/>
<path opacity="0.2" d="M-599.478 257.217L897.33 986" stroke="white" stroke-opacity="0.4"/>
<path opacity="0.2" d="M-687.526 300.088L809.281 1028.87" stroke="white" stroke-opacity="0.4"/>
<path opacity="0.2" d="M-775.574 342.957L721.234 1071.74" stroke="white" stroke-opacity="0.4"/>
<path opacity="0.2" d="M-863.62 385.826L633.187 1114.61" stroke="white" stroke-opacity="0.4"/>
<path opacity="0.2" d="M-951.668 428.695L545.139 1157.48" stroke="white" stroke-opacity="0.4"/>
<path opacity="0.2" d="M-1039.71 471.564L457.093 1200.35" stroke="white" stroke-opacity="0.4"/>
<path opacity="0.2" d="M-1127.76 514.436L369.045 1243.22" stroke="white" stroke-opacity="0.4"/>
<path opacity="0.2" d="M-1215.81 557.305L280.996 1286.09" stroke="white" stroke-opacity="0.4"/>
<path opacity="0.2" d="M-1303.86 600.174L192.949 1328.96" stroke="white" stroke-opacity="0.4"/>
<path opacity="0.2" d="M-1391.91 643.043L104.902 1371.83" stroke="white" stroke-opacity="0.4"/>
<path opacity="0.2" d="M-1479.95 685.914L16.8548 1414.7" stroke="white" stroke-opacity="0.4"/>
<path opacity="0.2" d="M104.902 85.7383L-1391.91 814.521" stroke="white" stroke-opacity="0.4"/>
<path opacity="0.2" d="M192.949 128.609L-1303.86 857.392" stroke="white" stroke-opacity="0.4"/>
<path opacity="0.2" d="M280.997 171.479L-1215.81 900.261" stroke="white" stroke-opacity="0.4"/>
<path opacity="0.2" d="M369.045 214.348L-1127.76 943.13" stroke="white" stroke-opacity="0.4"/>
<path opacity="0.2" d="M457.092 257.217L-1039.72 986" stroke="white" stroke-opacity="0.4"/>
<path opacity="0.2" d="M545.139 300.088L-951.668 1028.87" stroke="white" stroke-opacity="0.4"/>
<path opacity="0.2" d="M633.187 342.957L-863.621 1071.74" stroke="white" stroke-opacity="0.4"/>
<path opacity="0.2" d="M721.217 385.826L-775.59 1114.61" stroke="white" stroke-opacity="0.4"/>
<path opacity="0.2" d="M809.265 428.695L-687.543 1157.48" stroke="white" stroke-opacity="0.4"/>
<path opacity="0.2" d="M897.312 471.564L-599.496 1200.35" stroke="white" stroke-opacity="0.4"/>
<path opacity="0.2" d="M985.359 514.436L-511.448 1243.22" stroke="white" stroke-opacity="0.4"/>
<path opacity="0.2" d="M1073.41 557.305L-423.401 1286.09" stroke="white" stroke-opacity="0.4"/>
<path opacity="0.2" d="M1161.45 600.174L-335.353 1328.96" stroke="white" stroke-opacity="0.4"/>
<path opacity="0.2" d="M1249.5 643.043L-247.306 1371.83" stroke="white" stroke-opacity="0.4"/>
<rect y="625" width="1439" height="104" fill="url(#paint0_linear_50_2056)"/>
</g>
<defs>
<linearGradient id="paint0_linear_50_2056" x1="719.5" y1="625" x2="719.5" y2="729" gradientUnits="userSpaceOnUse">
<stop stop-color="#18181B" stop-opacity="0"/>
<stop offset="0.540438" stop-color="#18181B" stop-opacity="0.92"/>
<stop offset="1" stop-color="#18181B"/>
</linearGradient>
<clipPath id="clip0_50_2056">
<rect width="3704" height="729" fill="white" transform="translate(-1568)"/>
</clipPath>
</defs>
</svg>
